<svg width="17" height="22" viewBox="0 0 17 22" fill="none" xmlns="http://www.w3.org/2000/svg">
<path fill-rule="evenodd" clip-rule="evenodd" d="M0.642059 18.6422L12.6421 10.6422L0.642059 2.64222C0.484472 2.53716 0.349121 2.4021 0.243734 2.24473C0.138348 2.08736 0.0649872 1.91078 0.0278435 1.72506C-0.00930023 1.53935 -0.00949669 1.34813 0.0272579 1.16234C0.0640125 0.976543 0.137001 0.799807 0.24206 0.642221C0.347116 0.484634 0.482185 0.349284 0.63955 0.243897C0.796917 0.13851 0.973499 0.0651506 1.15922 0.0280071C1.34493 -0.0091363 1.53615 -0.00933669 1.72194 0.0274181C1.90774 0.064173 2.08447 0.137163 2.24206 0.242221L15.8453 9.31102C16.0644 9.45714 16.2441 9.65509 16.3683 9.88731C16.4926 10.1195 16.5576 10.3788 16.5576 10.6422C16.5576 10.9056 16.4926 11.1649 16.3683 11.3971C16.2441 11.6294 16.0644 11.8273 15.8453 11.9734L2.24206 21.0422C2.08447 21.1473 1.90774 21.2203 1.72194 21.257C1.53615 21.2938 1.34493 21.2936 1.15922 21.2564C0.973499 21.2193 0.796917 21.1459 0.63955 21.0405C0.482185 20.9352 0.347116 20.7998 0.24206 20.6422C0.137001 20.4846 0.0640125 20.3079 0.0272579 20.1221C-0.00949669 19.9363 -0.00930023 19.7451 0.0278435 19.5594C0.0649872 19.3737 0.138348 19.1971 0.243734 19.0397C0.349121 18.8823 0.484472 18.7473 0.642059 18.6422Z" fill="white"/>
</svg>
