<svg width="17" height="22" viewBox="0 0 17 22" fill="none" xmlns="http://www.w3.org/2000/svg">
<path fill-rule="evenodd" clip-rule="evenodd" d="M15.9156 18.6422L3.91556 10.6422L15.9156 2.64222C16.0731 2.53716 16.2085 2.4021 16.3139 2.24473C16.4193 2.08736 16.4926 1.91078 16.5298 1.72506C16.5669 1.53935 16.5671 1.34813 16.5304 1.16234C16.4936 0.976543 16.4206 0.799807 16.3156 0.642221C16.2105 0.484634 16.0754 0.349284 15.9181 0.243897C15.7607 0.13851 15.5841 0.0651506 15.3984 0.0280071C15.2127 -0.0091363 15.0215 -0.00933669 14.8357 0.0274181C14.6499 0.064173 14.4731 0.137163 14.3156 0.242221L0.712359 9.31102C0.493227 9.45714 0.313554 9.65509 0.189286 9.88731C0.0650185 10.1195 0 10.3788 0 10.6422C0 10.9056 0.0650185 11.1649 0.189286 11.3971C0.313554 11.6294 0.493227 11.8273 0.712359 11.9734L14.3156 21.0422C14.4731 21.1473 14.6499 21.2203 14.8357 21.257C15.0215 21.2938 15.2127 21.2936 15.3984 21.2564C15.5841 21.2193 15.7607 21.1459 15.9181 21.0405C16.0754 20.9352 16.2105 20.7998 16.3156 20.6422C16.4206 20.4846 16.4936 20.3079 16.5304 20.1221C16.5671 19.9363 16.5669 19.7451 16.5298 19.5594C16.4926 19.3737 16.4193 19.1971 16.3139 19.0397C16.2085 18.8823 16.0731 18.7473 15.9156 18.6422Z" fill="white"/>
</svg>
